PathFileType	4	(X/Y/Z)	C:/Users/cpontonn/Documents/TRAVAIL - COURS/FORMATION DOCTORALE/COURS AUTOMNE/TP OPENSIM/ESCRIME DATA/C3Ds/Trial011.trc	
DataRate	CameraRate	NumFrames	NumMarkers	Units	OrigDataRate	OrigDataStartFrame	OrigNumFrames	
250.00	250.00	5	54	mm	250.00	99	790	
Frame#	Time	Sword:Root4			Screen:LBot			Screen:RBot			Screen:LTop			Screen:RTop			Screen:MTop			Sword:Root1			Sword:Root2			Sword:Root3			Sword:Root5			Sword:Root6			Sword:STip			LFHD			LBHD			RFHD			RBHD			C7			T10			CLAV			STRN			LSHO			LRAD			LHUM			LWRB			LWRA			RSHO			RBAC			RUPA			RRAD			RHUM			RWRB			RWRA			RCAR			LFWT			LBWT			RFWT			RBWT			LKNE			LKNI			LANE			LANI			LHEE			LTAR			LTARI			LTOE			RTHI			RKNE			RKNI			RANE			RANI			RHEE			RTAR			RTARI			RTOE			
		X1	Y1	Z1	X2	Y2	Z2	X3	Y3	Z3	X4	Y4	Z4	X5	Y5	Z5	X6	Y6	Z6	X7	Y7	Z7	X8	Y8	Z8	X9	Y9	Z9	X10	Y10	Z10	X11	Y11	Z11	X12	Y12	Z12	X13	Y13	Z13	X14	Y14	Z14	X15	Y15	Z15	X16	Y16	Z16	X17	Y17	Z17	X18	Y18	Z18	X19	Y19	Z19	X20	Y20	Z20	X21	Y21	Z21	X22	Y22	Z22	X23	Y23	Z23	X24	Y24	Z24	X25	Y25	Z25	X26	Y26	Z26	X27	Y27	Z27	X28	Y28	Z28	X29	Y29	Z29	X30	Y30	Z30	X31	Y31	Z31	X32	Y32	Z32	X33	Y33	Z33	X34	Y34	Z34	X35	Y35	Z35	X36	Y36	Z36	X37	Y37	Z37	X38	Y38	Z38	X39	Y39	Z39	X40	Y40	Z40	X41	Y41	Z41	X42	Y42	Z42	X43	Y43	Z43	X44	Y44	Z44	X45	Y45	Z45	X46	Y46	Z46	X47	Y47	Z47	X48	Y48	Z48	X49	Y49	Z49	X50	Y50	Z50	X51	Y51	Z51	X52	Y52	Z52	X53	Y53	Z53	X54	Y54	Z54	

99	0.392	42.37974	1548.01257	1063.15088	-1670.94910	3506.16895	29.41675	2281.55518	3509.30933	31.87461	-1652.65747	3517.55981	2206.21973	2272.65698	3511.57275	2215.33789	-472.29117	3518.66821	2201.43506	89.22857	1593.42017	1086.92285	70.98023	1901.75830	1236.31628	165.78996	1532.08765	1043.55933	19.19766	1518.15649	1013.22278	97.19930	1573.43262	1004.81354	49.45454	2379.93945	1381.37866	210.69446	1146.10437	1509.17676	189.85295	1052.23877	1473.51465	426.92099	1135.03748	1515.67065	428.39624	1024.39502	1462.78076	247.84254	975.49866	1335.79553	159.40436	916.12317	1078.46729	346.35159	1082.06238	1223.89099	369.82806	1082.64343	1067.18726	135.21262	1151.75378	1249.87561	20.13109	1178.43738	936.93683	100.65275	1160.88367	896.34534	97.26693	1452.24390	925.34357	86.91946	1420.93188	1023.20471	421.52390	871.76752	1276.27783	266.94110	832.56946	1228.18604	456.92679	798.87878	1057.59656	429.15683	717.77740	979.77502	350.47379	753.93665	945.45612	598.58801	917.80115	910.59851	564.08466	951.30389	992.18567	645.70764	957.88611	985.51074	264.95560	1114.23816	846.98126	131.35107	927.34613	856.51776	394.01694	918.21979	852.25861	171.58058	865.60394	863.37341	199.88701	1375.66309	507.40506	336.20724	1351.08704	469.05927	162.36600	1326.36584	105.10702	255.76863	1301.33398	108.98522	178.59261	1244.49512	62.34022	182.25615	1463.84900	39.97572	284.18314	1427.58228	51.05227	279.06363	1507.08203	54.01471	550.17859	814.86792	503.40829	494.22284	729.41321	432.84979	502.33008	859.62854	372.44116	206.04276	682.37250	120.73995	255.65776	758.22852	74.94101	153.92236	740.04669	71.78329	305.65466	582.13898	51.81927	355.81830	684.87299	43.74342	404.23486	626.49115	49.65420 
100	0.396	42.49412	1548.00598	1063.11047	-1670.95557	3506.18408	29.42743	2281.56470	3509.29980	31.82190	-1652.63574	3517.56323	2206.21216	2272.69482	3511.57642	2215.39160	-472.37631	3518.58716	2201.51294	89.31507	1593.43872	1086.88916	70.89890	1901.80371	1236.15918	165.93860	1532.10449	1043.55945	19.27392	1518.13696	1013.16742	97.26102	1573.40198	1004.76459	49.20957	2380.02612	1381.05298	210.79036	1146.15930	1509.14172	189.95889	1052.29370	1473.47546	426.99008	1135.09949	1515.60999	428.49472	1024.47070	1462.71411	247.96945	975.51300	1335.75842	159.52147	916.11578	1078.43164	346.49570	1082.12256	1223.83203	370.00101	1082.66882	1067.14111	135.29256	1151.77905	1249.83057	20.22020	1178.45874	936.88220	100.83678	1160.95886	896.32031	97.41451	1452.23730	925.34875	87.02507	1420.96619	1023.20844	421.65640	871.82788	1276.28040	267.04434	832.61908	1228.14563	457.09390	798.85352	1057.57922	429.34247	717.78735	979.79431	350.62906	753.90033	945.42438	598.75378	917.78778	910.59711	564.20734	951.29730	992.19415	645.87024	957.91052	985.52814	265.08798	1114.25684	846.95825	131.44232	927.32410	856.49121	394.08118	918.22009	852.17432	171.70259	865.57178	863.38104	199.92407	1375.66785	507.41565	336.25076	1351.09045	469.05807	162.42953	1326.36951	105.12204	255.83739	1301.35901	108.99452	178.61804	1244.48071	62.36021	182.26228	1463.83887	39.99573	284.19595	1427.59741	51.05426	279.10028	1507.05554	54.00821	550.28162	814.89392	503.33704	494.32947	729.42487	432.78247	502.32614	859.70624	372.41272	206.05602	682.39807	120.76579	255.73039	758.25757	74.96323	153.94627	740.05908	71.80247	305.65894	582.15704	51.81916	355.74884	684.74658	43.77507	404.30444	626.54572	49.57713 
101	0.400	42.43401	1547.91821	1062.91809	-1670.93982	3506.16455	29.45898	2281.49097	3509.29907	31.88635	-1652.65381	3517.48389	2206.18091	2272.65186	3511.58813	2215.32422	-472.44077	3518.57422	2201.62695	89.33825	1593.45032	1086.85657	70.86586	1901.83203	1236.06006	165.97571	1532.12292	1043.54309	19.37941	1518.13843	1013.12823	97.31802	1573.41187	1004.75616	49.02523	2380.12280	1380.71240	210.87404	1146.18469	1509.05359	190.06337	1052.30872	1473.41150	427.11206	1135.16736	1515.56348	428.60413	1024.53625	1462.69031	248.05727	975.55249	1335.69971	159.63948	916.09991	1078.38428	346.59146	1082.14795	1223.80542	370.05875	1082.67798	1067.06360	135.37877	1151.77478	1249.79626	20.30779	1178.45923	936.81976	100.89926	1160.94141	896.24304	97.52233	1452.24268	925.27173	87.07140	1420.92578	1023.14789	421.78314	871.85297	1276.26477	267.16925	832.63977	1228.14404	457.20554	798.82013	1057.59058	429.51868	717.77515	979.78619	350.79333	753.86707	945.40302	598.91266	917.78198	910.61328	564.23273	951.32642	992.35339	646.04291	957.93488	985.54272	264.98105	1113.94971	846.77698	131.54465	927.29224	856.47363	394.17667	918.21198	852.12555	171.83797	865.52979	863.38055	200.03183	1375.68164	507.41922	336.32169	1351.09595	469.02484	162.46243	1326.36536	105.15118	255.92102	1301.34656	108.97475	178.64751	1244.48767	62.39183	182.29025	1463.86133	39.99165	284.15799	1427.64514	51.00108	278.92773	1507.16528	54.07320	550.41486	814.94507	503.28983	494.43167	729.42273	432.71918	502.49115	859.70734	372.31659	206.22375	682.38141	120.75569	255.82655	758.27435	74.90543	153.96191	740.08856	71.84235	305.64487	582.14813	51.83546	355.44434	684.99194	43.59385	404.40906	626.48749	49.47059 
102	0.404	42.42030	1547.99744	1063.13110	-1670.92029	3506.15698	29.45945	2281.53052	3509.32300	31.83964	-1652.68359	3517.53247	2206.23877	2272.71313	3511.57080	2215.42114	-472.44342	3518.53418	2201.53271	89.39681	1593.42932	1086.79907	70.80407	1901.87329	1235.96387	166.07440	1532.11487	1043.54358	19.51012	1518.11670	1013.06006	97.17647	1573.42297	1004.80560	48.84248	2380.20605	1380.40356	210.98868	1146.24841	1508.98914	190.15652	1052.36060	1473.33191	427.21002	1135.22974	1515.53223	428.73975	1024.57104	1462.69177	248.17317	975.59821	1335.66797	159.75676	916.08173	1078.36694	346.71970	1082.20947	1223.77795	370.16003	1082.70117	1066.97546	135.43053	1151.80786	1249.75073	20.43081	1178.47009	936.75574	101.03624	1161.04333	896.18286	97.69033	1452.23975	925.26270	87.20351	1420.98987	1023.12939	421.86185	871.87036	1276.23303	267.27310	832.66541	1228.12305	457.35733	798.80640	1057.54993	429.67163	717.78546	979.79034	350.95724	753.86102	945.39691	599.07660	917.78766	910.63629	564.49658	951.30682	992.18311	646.16669	957.91010	985.57739	264.99225	1113.88831	846.68097	131.65749	927.25677	856.44904	394.31274	918.24530	852.05286	171.93011	865.51337	863.37646	200.12872	1375.69214	507.44467	336.40564	1351.09790	469.03888	162.52052	1326.37170	105.19020	255.96419	1301.35229	109.00746	178.69102	1244.50684	62.38198	182.30914	1463.89038	39.98789	284.17035	1427.63306	50.96955	279.09909	1507.10620	53.91167	550.47156	814.80707	503.21991	494.53662	729.48138	432.64157	502.51379	859.79333	372.29974	206.22476	682.44202	120.84262	255.73363	758.28613	74.96937	153.97142	740.11371	71.85941	305.75229	582.10443	51.76580	355.40768	685.04803	43.54775	404.35568	626.53870	49.53703 
103	0.408	42.39691	1547.92493	1062.95178	-1670.89392	3506.17554	29.41455	2281.47827	3509.25684	31.88474	-1652.62158	3517.60059	2206.21973	2272.63599	3511.55688	2215.36255	-472.42697	3518.41113	2201.37158	89.47597	1593.50464	1086.75427	70.72599	1901.94287	1235.80664	166.19537	1532.17627	1043.53210	19.59266	1518.12988	1013.00427	97.30112	1573.46497	1004.76593	48.61877	2380.29150	1380.04749	211.05222	1146.25488	1508.93530	190.27133	1052.39001	1473.25378	427.29456	1135.27271	1515.49268	428.82751	1024.60693	1462.65063	248.28717	975.62579	1335.61694	159.87163	916.09637	1078.32324	346.80280	1082.24597	1223.74841	370.19586	1082.72205	1066.89282	135.52098	1151.83838	1249.71289	20.54030	1178.46838	936.72180	101.14484	1161.07825	896.14612	97.74242	1452.23218	925.20691	87.25742	1420.91235	1023.08026	422.00662	871.91718	1276.22668	267.39713	832.66107	1228.10144	457.48148	798.78296	1057.52844	429.80612	717.78778	979.77448	351.10883	753.84253	945.37225	599.23865	917.77100	910.62561	564.67114	951.31250	992.18500	646.28705	957.89282	985.58362	265.30585	1114.19202	846.80450	131.73665	927.22321	856.42725	394.41083	918.24182	851.99988	172.07336	865.48505	863.36774	200.16251	1375.72986	507.42172	336.47458	1351.12097	469.02951	162.56496	1326.38269	105.21403	256.00604	1301.32861	108.97043	178.71254	1244.49841	62.41852	182.27740	1463.86804	40.01542	284.18164	1427.68140	50.97688	278.97379	1507.15063	54.00761	550.64642	814.98218	503.16949	494.54391	729.32068	432.67044	502.65710	859.79724	372.18427	206.20201	682.47955	120.92215	255.81267	758.29346	75.01972	154.02887	740.14630	71.91176	305.68585	582.17139	51.83319	355.80005	684.97662	43.79015	404.34787	626.54553	49.53918 
